PathFileType	4	(X/Y/Z)	/Users/itak/Documents/Research/Walk-IL/dataset/trc/00303_00010.trc
DataRate	CameraRate	NumFrames	NumMarkers	Units	OrigDataRate	OrigDataStartFrame	OrigNumFrames
100.000000	100.000000	4	56	mm	100.000000	247	396
Frame#	Time	RPSI			LPSI			L3			STRN			T10			C7			CLAV			RBAK			LBAK			LSHO			LUPA			LAEL			LAOL			LWTS			LWPS			LFRA			LIFD			LHPS			LHTS			RSHO			RUPA			RAEL			RAOL			RWTS			RWPS			RFRA			RIFD			RBHD			LFHD			RFHD			LBHD			LHIP			RHIP			RASI			LASI			LKNE			LTHI			LANK			LTIP			LTOE			LMT1			LMT5			LHEE			RKNE			RTHI			RTIP			RTOE			RMT1			RMT5			RHEE			RHPS			RHTS			RANK			*53			*54			*55			
		X1	Y1	Z1	X2	Y2	Z2	X3	Y3	Z3	X4	Y4	Z4	X5	Y5	Z5	X6	Y6	Z6	X7	Y7	Z7	X8	Y8	Z8	X9	Y9	Z9	X10	Y10	Z10	X11	Y11	Z11	X12	Y12	Z12	X13	Y13	Z13	X14	Y14	Z14	X15	Y15	Z15	X16	Y16	Z16	X17	Y17	Z17	X18	Y18	Z18	X19	Y19	Z19	X20	Y20	Z20	X21	Y21	Z21	X22	Y22	Z22	X23	Y23	Z23	X24	Y24	Z24	X25	Y25	Z25	X26	Y26	Z26	X27	Y27	Z27	X28	Y28	Z28	X29	Y29	Z29	X30	Y30	Z30	X31	Y31	Z31	X32	Y32	Z32	X33	Y33	Z33	X34	Y34	Z34	X35	Y35	Z35	X36	Y36	Z36	X37	Y37	Z37	X38	Y38	Z38	X39	Y39	Z39	X40	Y40	Z40	X41	Y41	Z41	X42	Y42	Z42	X43	Y43	Z43	X44	Y44	Z44	X45	Y45	Z45	X46	Y46	Z46	X47	Y47	Z47	X48	Y48	Z48	X49	Y49	Z49	X50	Y50	Z50	X51	Y51	Z51	X52	Y52	Z52	X53	Y53	Z53	X54	Y54	Z54	X55	Y55	Z55	X56	Y56	Z56	

248	2.47	568.1336669921875	997.5344848632812	-74.53978729248047	393.7257080078125	981.137451171875	-79.94314575195312	485.4869689941406	1067.097290039062	-93.09848022460938	474.9031677246094	1246.163330078125	-346.4979553222656	495.233154296875	1181.229125976562	-82.42734527587891	483.5575256347656	1426.633666992188	-122.6888427734375	476.3648071289062	1346.401489257812	-282.7789611816406	563.1063232421875	1287.652465820312	-79.73770904541016	378.3524475097656	1393.265991210938	-101.1185913085938	319.1530456542969	1400.362548828125	-189.5542602539062	246.6487426757812	1285.616333007812	-154.9271850585938	228.9781188964844	1082.790771484375	-149.5621795654297	294.6304626464844	1071.096557617188	-91.82749938964844	272.2388000488281	869.1863403320312	-244.9422302246094	210.3501129150391	854.3104248046875	-209.8558502197266	216.9646301269531	980.724365234375	-167.9631195068359	271.16455078125	685.4862670898438	-261.5285949707031	214.4840698242188	766.2620239257812	-219.9700622558594	252.1185455322266	772.1931762695312	-273.9344787597656	633.4786987304688	1403.212524414062	-204.6642608642578	699.3966064453125	1346.447387695312	-208.7541046142578	782.6340942382812	1095.582397460938	-261.0316467285156	699.1793212890625	1065.212768554688	-229.8554077148438	758.339599609375	935.57763671875	-448.2066955566406	830.9395751953125	917.4053344726562	-407.3243408203125	803.7587890625	1043.699462890625	-306.0760803222656	784.1043701171875	778.68017578125	-544.7806396484375	564.8602294921875	1569.253051757812	-137.5586700439453	438.0447082519531	1642.387817382812	-291.9503173828125	530.17626953125	1635.251220703125	-297.9487915039062	418.7590942382812	1571.15625	-131.3043518066406	300.6309814453125	936.7583618164062	-154.5829467773438	663.5177612304688	950.8599243164062	-170.0755920410156	604.453369140625	959.0089721679688	-296.7802734375	353.4366455078125	955.4876098632812	-290.2947998046875	301.5651550292969	497.8749694824219	-347.8732604980469	291.1845092773438	633.9346313476562	-297.8357849121094	308.2191162109375	95.65421295166016	-133.9985504150391	292.677001953125	289.6551818847656	-243.7858123779297	377.2637023925781	53.98003005981445	-325.0782775878906	413.7896728515625	49.69644927978516	-254.22509765625	303.0570373535156	62.29073333740234	-250.1915283203125	363.8517456054688	103.1025390625	-83.55738067626953	630.0460205078125	482.1116027832031	-232.0852508544922	666.2965698242188	746.0394897460938	-246.4092102050781	612.18701171875	360.1034851074219	-247.3130798339844	521.9879150390625	40.06405258178711	-392.7027282714844	485.6963195800781	40.78210830688477	-333.4329223632812	598.9442138671875	25.28003120422363	-303.33837890625	535.6956176757812	37.44447326660156	-144.8680877685547	842.590576171875	833.2611083984375	-482.1757202148438	793.7230834960938	853.57080078125	-529.7572631835938	584.45751953125	36.00929641723633	-199.3092651367188	nan	nan	nan	nan	nan	nan	nan	nan	nan	
249	2.48	569.5315551757812	997.75048828125	-76.55742645263672	395.1477355957031	981.4143676757812	-81.07028961181641	486.6548767089844	1067.097412109375	-94.78274536132812	475.5303039550781	1246.050415039062	-348.0296936035156	496.3494262695312	1181.196166992188	-84.116943359375	484.6344299316406	1426.63720703125	-124.266357421875	477.1274719238281	1346.343627929688	-284.3747863769531	564.1998901367188	1287.6005859375	-81.48375701904297	379.3881530761719	1393.267578125	-102.5307464599609	320.149658203125	1400.3564453125	-190.891845703125	247.5497436523438	1285.500610351562	-156.7861785888672	229.8855285644531	1082.630126953125	-152.2881927490234	294.9083557128906	1070.88818359375	-93.97479248046875	273.9988098144531	868.8031616210938	-246.8350982666016	211.6619262695312	854.2652587890625	-212.6938629150391	218.0279541015625	980.6266479492188	-170.8250732421875	272.9215393066406	685.1485595703125	-262.8592529296875	215.4849853515625	766.1546630859375	-222.6043853759766	254.1431274414062	771.8016357421875	-275.8773803710938	634.4022827148438	1403.066650390625	-206.5790252685547	700.2054443359375	1346.153930664062	-210.7784118652344	782.7240600585938	1094.974731445312	-262.8706970214844	699.2749633789062	1064.8896484375	-231.2751007080078	756.411376953125	935.6400756835938	-450.2940673828125	829.3375244140625	917.1160888671875	-410.1357116699219	803.3814697265625	1043.11767578125	-308.1650695800781	780.765869140625	779.0867919921875	-547.728759765625	565.7706909179688	1569.271850585938	-139.3616943359375	438.5335388183594	1642.3779296875	-293.4302673339844	530.6531372070312	1635.255615234375	-299.6753540039062	419.6838073730469	1571.156127929688	-132.7398681640625	301.6480102539062	937.0051879882812	-154.9587860107422	664.0145263671875	950.7462158203125	-172.1365203857422	604.8029174804688	958.7881469726562	-298.8976440429688	353.7306213378906	955.3151245117188	-291.2029418945312	301.8653564453125	497.2578430175781	-346.74853515625	291.5384521484375	633.5492553710938	-297.1424255371094	310.1162109375	90.97843933105469	-140.1708831787109	293.6413879394531	287.3300476074219	-245.7596588134766	376.9950561523438	54.56504440307617	-333.0506286621094	414.3165893554688	48.23837280273438	-262.7767944335938	303.7005615234375	60.93148422241211	-257.1448669433594	366.3608093261719	96.88948822021484	-90.06500244140625	630.4417724609375	481.9552001953125	-232.4891967773438	666.7354125976562	745.8201904296875	-248.0447692871094	612.4917602539062	360.0386657714844	-247.42578125	522.0797119140625	40.19924163818359	-392.6555786132812	485.7136535644531	40.81343841552734	-333.3150024414062	598.9571533203125	25.26736450195312	-303.3142700195312	535.7919921875	37.3912467956543	-144.7979278564453	840.0003662109375	833.193115234375	-485.4144897460938	790.9288330078125	853.8632202148438	-532.4816284179688	584.53173828125	35.96697616577148	-199.2996368408203	nan	nan	nan	nan	nan	nan	nan	nan	nan	
250	2.49	570.8787841796875	997.966796875	-78.55309295654297	396.5057067871094	981.6980590820312	-82.19493865966797	487.7766723632812	1067.08740234375	-96.43506622314453	476.0693969726562	1245.930297851562	-349.5308227539062	497.3958129882812	1181.159057617188	-85.77274322509766	485.6266784667969	1426.632202148438	-125.8090362548828	477.7938537597656	1346.268432617188	-285.9430847167969	565.2048950195312	1287.541870117188	-83.18446350097656	380.3511962890625	1393.249267578125	-103.9098587036133	321.0789489746094	1400.346435546875	-192.1981048583984	248.3740844726562	1285.400146484375	-158.6105804443359	230.6283569335938	1082.51220703125	-155.025146484375	295.01611328125	1070.671508789062	-96.15348815917969	275.4251708984375	868.3300170898438	-248.6018371582031	212.5953521728516	854.2360229492188	-215.4038543701172	218.8470306396484	980.563232421875	-173.6471862792969	273.9943237304688	684.6947021484375	-263.86376953125	215.9608612060547	766.0677490234375	-225.0290069580078	255.7111511230469	771.305419921875	-277.576416015625	635.24853515625	1402.90771484375	-208.4459838867188	700.9442138671875	1345.841064453125	-212.7224731445312	782.689208984375	1094.284912109375	-264.3966674804688	699.2318115234375	1064.537719726562	-232.3997344970703	754.3753662109375	935.4931640625	-451.9389953613281	827.5777587890625	916.5885620117188	-412.4671630859375	802.8753051757812	1042.407958984375	-309.8892517089844	777.2689208984375	779.2380981445312	-550.13134765625	566.5850219726562	1569.2861328125	-141.0978851318359	438.9423522949219	1642.372436523438	-294.8505554199219	531.0599365234375	1635.264282226562	-301.326416015625	420.5224914550781	1571.150756835938	-134.1280975341797	302.6572265625	937.2817993164062	-155.2381134033203	664.4605102539062	950.6255493164062	-174.1576232910156	605.1017456054688	958.560302734375	-300.9750366210938	354.015869140625	955.1437377929688	-292.1129150390625	302.1655578613281	496.5869750976562	-345.3438110351562	291.9302978515625	633.1126708984375	-296.2443237304688	311.5486755371094	86.56967926025391	-145.9637603759766	294.4367980957031	285.0755004882812	-247.4385833740234	376.2434692382812	55.1172981262207	-340.4382629394531	414.3213500976562	46.79933547973633	-270.7867736816406	303.8615112304688	59.74884796142578	-263.5944213867188	368.3771667480469	90.95167541503906	-96.21724700927734	630.8084716796875	481.8092346191406	-232.9807586669922	667.1286010742188	745.591064453125	-249.65185546875	612.7708740234375	359.9690551757812	-247.6482086181641	522.147216796875	40.30902099609375	-392.615234375	485.7159423828125	40.82525253295898	-333.2064208984375	598.9578247070312	25.2598762512207	-303.2899169921875	535.8897705078125	37.35944366455078	-144.74658203125	837.2354125976562	832.848876953125	-488.1063232421875	787.9844360351562	853.8642578125	-534.68603515625	584.5907592773438	35.94034957885742	-199.2918395996094	nan	nan	nan	nan	nan	nan	nan	nan	nan	
251	2.5	572.1723022460938	998.1814575195312	-80.51972198486328	397.7969360351562	981.9953002929688	-83.32110595703125	488.8415832519531	1067.071655273438	-98.05884552001953	476.5175476074219	1245.80859375	-351.0058288574219	498.3676452636719	1181.1201171875	-87.39627075195312	486.5370178222656	1426.620239257812	-127.3208770751953	478.3680725097656	1346.18017578125	-287.4845886230469	566.1275024414062	1287.48046875	-84.8409423828125	381.2427673339844	1393.213012695312	-105.2595443725586	321.9356384277344	1400.332763671875	-193.4743804931641	249.1319274902344	1285.316528320312	-160.3725738525391	231.1997375488281	1082.431762695312	-157.7261810302734	294.9948120117188	1070.448608398438	-98.33802032470703	276.4879760742188	867.7860107421875	-250.2537994384766	213.1503143310547	854.2172241210938	-217.9433288574219	219.4201812744141	980.5286865234375	-176.3777160644531	274.3653869628906	684.1371459960938	-264.5833435058594	215.9459228515625	766.0036010742188	-227.2089996337891	256.7818908691406	770.7246704101562	-279.0402526855469	636.0220336914062	1402.741943359375	-210.2675170898438	701.6161499023438	1345.517822265625	-214.5933990478516	782.5357055664062	1093.529663085938	-265.6401672363281	699.0645751953125	1064.169921875	-233.2509613037109	752.25146484375	935.1325073242188	-453.1576538085938	825.6771850585938	915.8206787109375	-414.3277587890625	802.2461547851562	1041.586303710938	-311.2772827148438	773.628173828125	779.1013793945312	-551.9711303710938	567.3082885742188	1569.30078125	-142.7718811035156	439.272705078125	1642.373657226562	-296.214599609375	531.396240234375	1635.281616210938	-302.9087219238281	421.2783203125	1571.142456054688	-135.4699096679688	303.64892578125	937.5681762695312	-155.4952392578125	664.8587646484375	950.498779296875	-176.1315612792969	605.353271484375	958.3264770507812	-303.0051574707031	354.3084106445312	954.9855346679688	-293.034912109375	302.4875183105469	495.8723449707031	-343.6681518554688	292.3659362792969	632.6280517578125	-295.1563720703125	312.5300903320312	82.40224456787109	-151.3995971679688	295.0921936035156	282.8719177246094	-248.8481903076172	375.1160583496094	55.63518524169922	-347.2698364257812	413.8772583007812	45.3746337890625	-278.2530517578125	303.6071472167969	58.70750427246094	-269.5772094726562	369.8891906738281	85.27302551269531	-102.0134429931641	631.1515502929688	481.677001953125	-233.5624084472656	667.4751586914062	745.3578491210938	-251.2393188476562	613.015380859375	359.8951721191406	-247.9845886230469	522.1876220703125	40.3906135559082	-392.5806274414062	485.7010192871094	40.81672286987305	-333.1151733398438	598.9456787109375	25.25700569152832	-303.2669372558594	535.9775390625	37.34604263305664	-144.7095947265625	834.3193359375	832.212158203125	-490.2488098144531	784.891357421875	853.5511474609375	-536.36962890625	584.630615234375	35.92649078369141	-199.2851409912109	nan	nan	nan	nan	nan	nan	nan	nan	nan	
